<svg viewBox="0 0 555 226" xmlns="http://www.w3.org/2000/svg" fill-rule="evenodd" clip-rule="evenodd" stroke-linejoin="round" stroke-miterlimit="2" fill="#00a9e0"><path d="M551.675 119.972c-1.008-2.905-2.217-6.01-3.528-9.215-3.527-8.815-7.459-18.73-7.459-27.646 0-3.005-2.016-5.61-4.939-6.31-2.923-.702-5.946.6-7.358 3.305-.2.3-17.639 32.754-37.093 50.984-9.878 9.215-16.027 11.72-18.748 11.72-7.459 0 3.528-19.132 8.265-28.848 7.56-15.325 17.74-35.759 26.006-52.287h30.037c3.63 0 6.552-2.905 6.552-6.51 0-3.607-2.923-6.512-6.552-6.512h-23.485c4.636-9.215 7.66-15.425 7.761-15.626 1.613-3.205.302-7.11-2.923-8.714-3.226-1.603-7.157-.3-8.77 2.905-.504 1.102-4.838 9.616-10.684 21.435h-112.59c7.56-14.824 18.042-30.95 28.626-30.95 6.35 0 3.73 5.708 3.73 10.116 0 2.203 1.108 5.108 5.442 5.108 6.351 0 7.258-9.516 7.36-12.32 0-2.905 0-15.426-16.935-15.426-19.656 0-33.566 23.74-42.94 43.372h-60.276c-3.629 0-6.552 2.905-6.552 6.511 0 3.606 2.923 6.511 6.552 6.511h54.33c-1.11 2.404-2.017 4.407-2.823 6.01L310.57 170.556h-50.903l12.298-24.34c.907 6.41 9.374 9.114 14.514 9.114 13.71 0 26.812-9.415 32.86-21.435l8.568-17.228 2.923-5.91c1.814-3.707 2.722-7.513 2.722-11.019 0-6.11-3.327-16.227-17.035-16.227-6.25 0-12.096 3.005-17.035 7.413.403-2.705-1.008-5.409-3.528-6.71-3.225-1.604-7.156-.302-8.769 2.903l-20.563 40.768c-2.52 5.008-8.567 14.324-15.522 14.324-2.62 0-2.52-3.406 0-8.515.302-.7 19.353-38.864 19.353-38.864 1.612-3.205.302-7.112-2.923-8.714-3.226-1.603-7.157-.3-8.77 2.905 0 0-.403.901-1.209 2.404-1.512-4.408-5.14-7.914-12.096-7.914-13.708 0-26.006 9.416-32.053 21.436l-8.568 17.23-2.923 5.908c-1.815 3.706-2.722 7.513-2.722 11.018 0 6.111 3.327 16.227 17.035 16.227 7.358 0 13.91-4.106 19.454-9.616 1.108 5.91 5.241 9.616 12.095 9.616 1.915 0 3.73-.4 5.544-1l-8.164 16.226h-117.43c-3.629 0-6.552 2.905-6.552 6.511 0 3.606 2.923 6.51 6.552 6.51h110.675l-16.53 32.655c-1.613 3.205-.303 7.111 2.923 8.714.907.501 1.915.701 2.923.701 2.42 0 4.737-1.302 5.846-3.606l19.454-38.564h50.902l-16.43 32.955c-1.612 3.205-.302 7.112 2.923 8.714.908.501 1.916.702 2.924.702 2.42 0 4.737-1.303 5.846-3.606l19.454-38.564h94.043c3.63 0 6.552-2.905 6.552-6.51 0-3.607-2.923-6.512-6.552-6.512h-87.492l49.19-97.16c1.21-2.305 2.52-5.21 4.031-8.616.504-1 .907-2.103 1.512-3.205h112.39c-2.924 5.81-5.948 11.92-8.972 18.03-23.183 46.277-51.003 62.704-67.937 62.704-2.117 0-3.73-.3-4.939-.7 14.615-9.016 28.828-21.336 35.178-33.857 4.334-8.614 2.217-14.524.504-17.329-2.62-4.307-7.358-6.81-13.104-6.81-12.499-.202-25.098 8.313-33.767 22.736-6.249 10.418-8.769 21.636-7.257 30.551-6.552 3.105-13.507 5.41-16.027 5.41-5.24 0-5.24-3.707-1.713-10.919 7.156-14.624 19.252-37.963 19.353-38.263a6.587 6.587 0 00-2.823-8.815c-3.225-1.603-7.156-.4-8.87 2.805-.605 1.202-15.724 30.45-22.074 43.972-2.823 6.01-2.722 12.12.403 16.828 1.713 2.605 5.644 6.812 13.91 7.312.302.101.705.101 1.008.101 5.544 0 13.607-2.505 22.477-6.61 4.234 4.306 10.383 6.71 17.842 6.71 13.002 0 27.92-7.613 41.125-19.733-1.512 8.614 1.915 20.033 14.817 20.033 22.982 0 49.39-38.764 56.648-49.682 1.512-2.304 3.225-6.91 3.225-6.91s.303 4.105 1.11 6.61c1.21 3.305 2.52 6.611 3.728 9.716 1.21 3.105 2.42 5.91 3.327 8.614 1.512 4.407 2.318 8.714 2.217 12.42 0 18.631-17.84 17.33-17.84 9.216 0-7.313 6.551-10.318 6.551-15.326 0-1.603-.907-5.208-5.544-5.208-6.249 0-13.103 10.016-13.103 20.534.1 24.941 43.04 25.943 43.04-9.416-.1-5.109-1.109-10.718-3.125-16.427zM92.041 4.48c13.406-6.41 28.223-5.91 38.908 1.302 9.98 6.811 14.918 18.13 13.91 31.953-1.613 22.137-14.515 35.36-15.019 35.96-2.923 2.905-7.66 3.005-10.685.1-2.923-2.905-3.024-7.612-.1-10.617.1 0 9.575-10.117 10.785-26.444 2.721-36.36-50.7-25.743-54.229 21.135-1.21 16.527 4.637 27.646 11.29 40.667 7.458 14.424 15.925 30.651 14.111 55.492-.1.201-.1.401-.1.601-7.258 47.78-38.505 58.898-47.98 61.202-3.93.901-7.862 1.402-11.794 1.402-13.708 0-26.308-5.909-33.867-16.327-11.29-15.626-9.374-38.063 5.342-61.502C23.5 121.975 35.595 110.156 36.1 109.655c3.024-2.905 7.761-2.905 10.684.1 2.923 3.005 2.923 7.713-.1 10.618-.202.2-11.39 11.218-21.269 26.944-11.39 18.03-13.507 34.357-5.947 44.775 6.15 8.414 17.841 11.92 29.937 9.015 18.85-4.508 32.557-22.738 36.488-48.58 1.411-20.435-5.342-33.456-12.498-47.179l-.74-1.422C65.74 90.636 58.93 76.686 60.39 56.667 63.01 22.009 83.371 8.587 92.04 4.48zM197.98 87.518c3.73-7.312 13.305-2.504 12.498 3.005a17.14 17.14 0 01-1.41 4.007l-19.656 39.565c-5.947 12.02-18.043 21.436-29.634 21.436-7.963 0-12.298-3.706-14.414-8.314-6.35 5.108-13.91 8.314-20.563 8.414-6.753 0-12.297-2.705-15.22-7.412-2.923-4.708-2.923-10.718 0-16.628 4.132-8.414 21.873-44.073 21.873-44.073 1.612-3.205 5.543-4.507 8.77-2.905 3.224 1.603 4.535 5.51 2.922 8.715 0 0-13.003 26.243-19.05 38.363-1.412 2.905-5.04 11.018.705 11.018 6.753 0 15.926-6.71 19.655-14.223 0 0 18.346-37.162 20.261-40.868 3.73-7.312 13.305-2.504 12.498 3.005a17.125 17.125 0 01-1.41 4.007l-18.144 36.46c0 .2-.1.301-.202.501-1.41 2.905-3.83 11.018 1.915 11.018 6.653 0 14.616-6.71 18.345-14.223 0 0 18.345-37.162 20.261-40.868zm40.117 40.868c-3.73 7.512-13.406 14.223-20.16 14.223-6.753 0-5.342-6.71-3.628-10.117l10.684-21.435c3.73-7.512 12.096-14.223 19.857-14.223 7.762 0 5.342 7.211 3.63 10.617l-10.383 20.935zm45.963 3.505l10.382-20.934c3.73-7.513 13.406-14.224 20.16-14.224 6.753 0 5.342 6.711 3.628 10.117l-10.684 21.435c-3.73 7.513-12.096 14.224-19.857 14.224-7.66 0-5.342-7.212-3.629-10.618zm145.047-22.537c-6.048 7.513-15.22 14.825-24.393 20.634.403-5.108 2.42-11.118 5.846-16.727 1.916-3.105 4.335-6.31 7.056-9.115 13.104-12.922 22.075-7.813 11.491 5.208zm-32.457-43.07c4.133 0 7.46 3.304 7.46 7.411 0 4.107-3.327 7.412-7.46 7.412-4.132 0-7.458-3.305-7.458-7.412 0-4.107 3.326-7.412 7.458-7.412z"/></svg>
